# xmcd CD database file
#
# Track frame offsets:
#	150
#	18827
#	35225
#	48000
#	70530
#	97942
#	113035
#	124220
#	149690
#	165977
#	183767
#	207784
#	223420
#	237862
#	252932
#	273227
#	289932
#	313877
#	325542
#	342827
#
# Disc length: 4741 seconds
#
# Revision: 3
# Processed by: cddbd v1.5.2PL0 Copyright (c) Steve Scherf et al.
# Submitted via: CDex 1.70beta2
#
DISCID=21128314
DTITLE=Various Artist - Absolute Non-Stop Party Dance Vol. 1
DYEAR=1995
DGENRE=misc
TTITLE0=Whigfield/Think Of You+Saturday Night+Another Day Megamix
TTITLE1=Alex Party/Don't Give Me Your Life (Saturday Night Fms Edit)
TTITLE2=Greed/Pump Up The Volume (Clubaround Sound Mix)
TTITLE3=Corona/Baby Baby (Lee Marrow Extended Mix)
TTITLE4=La Bouche/Be My Lover (Club Mix 1 3 5 Bmp)
TTITLE5=Playahitti/The Summer Is Magic (Radio Mix)
TTITLE6=Technotronic/Recall (Radio Mix) (Featuring Ya Kid K)
TTITLE7=Swing/Sweet Dreams (Extended Mix) (Featuring Dr.Alban)
TTITLE8=Magic Affair/Fire (Single Vers.)
TTITLE9=Basic Element/The Ride (Radio Edit)
TTITLE10=The Real McCoy/Run Away (Hallucination Mix)
TTITLE11=Fun Factory/Pain (Radio Mix)
TTITLE12=Maxx/You Can Get It (Airplay Mix)
TTITLE13=Centory/The Spirit (Montezumas Short Mix Bmp 148)
TTITLE14=In A Tank/Boogie Woogie Bugle Boy (Don't Stop) (Selebration Mix)
TTITLE15=Robotnico II/Backtired (Radio Edit)
TTITLE16=Herbie/Right Type Of Mood (Extended Mix)
TTITLE17=Double You/Dancing With An Angel (Radio Mix)
TTITLE18=E-Rotic/Fred Come To Bed (The Original)
TTITLE19=Baby D/Let Me Be Your Fantasy
EXTD=YEAR: 1995
EXTT0=
EXTT1=
EXTT2=
EXTT3=
EXTT4=
EXTT5=
EXTT6=
EXTT7=
EXTT8=
EXTT9=
EXTT10=
EXTT11=
EXTT12=
EXTT13=
EXTT14=
EXTT15=
EXTT16=
EXTT17=
EXTT18=
EXTT19=
PLAYORDER=
